<?xml version="1.0" encoding="utf-8"?>
<!-- Generator: Adobe Illustrator 16.0.0, SVG Export Plug-In . SVG Version: 6.00 Build 0)  -->
<!DOCTYPE svg PUBLIC "-//W3C//DTD SVG 1.1//EN" "http://www.w3.org/Graphics/SVG/1.1/DTD/svg11.dtd">
<svg version="1.1" id="图层_1" xmlns="http://www.w3.org/2000/svg" xmlns:xlink="http://www.w3.org/1999/xlink" x="0px" y="0px"
	 width="960px" height="560px" viewBox="0 0 960 560" enable-background="new 0 0 960 560" xml:space="preserve">
<g transform="translate(0.000000,1276.000000) scale(0.100000,-0.100000)">
	<path fill="#29ABE2" d="M2475.649,11679.457c-176.689-11.323-314.531-37.495-470.454-89.287
		c-119.766-39.653-265.708-109.248-368.481-175.61c-24.551-15.645-25.088-15.645,25.625-9.98
		c51.523,5.938,175.342,8.091,226.597,4.316c172.91-12.949,313.725-51.255,468.022-127.056
		c67.173-33.179,129.214-70.405,238.735-143.511c51.519-34.258,97.109-62.578,115.996-71.753
		c29.131-14.297,32.1-15.376,51.25-15.376c19.692,0,20.771,0.269,41.543,13.491c11.87,7.549,34.258,25.62,49.634,40.19
		c50.444,48.555,81.738,104.668,96.572,174.263c6.743,31.826,7.017,100.347,0.273,132.178
		c-17.266,82.007-61.235,164.824-126.519,238.193l-11.602,12.949l-31.021,4.048c-66.631,8.633-120.85,12.139-203.662,12.944
		C2530.683,11679.999,2484.551,11679.999,2475.649,11679.457z"/>
	<path fill="#29ABE2" d="M2889.726,11647.362c0-0.811,5.933-10.254,12.949-21.045c56.104-83.623,93.872-173.179,106.011-251.411
		c4.854-30.479,4.048-86.86-1.348-117.075c-15.649-87.939-66.362-174.8-158.076-270.566c-16.455-17.529-29.673-32.637-29.136-33.984
		c0.542-1.621,231.45-217.964,254.648-238.467c5.669-4.854,6.206-4.585,80.928,55.034
		c294.302,234.146,402.749,309.404,557.583,387.095c27.788,14.028,50.444,26.978,50.444,28.867c0,3.506-34.526,37.764-66.089,65.283
		c-216.343,189.097-477.197,323.164-748.569,384.937C2894.038,11648.71,2889.726,11649.516,2889.726,11647.362z"/>
	<path fill="#29ABE2" d="M1670.43,11373.285c-42.891-4.043-68.784-8.091-98.457-15.103c-28.862-6.743-30.483-7.554-56.65-27.515
		c-356.074-269.487-596.426-672.231-663.594-1111.392c-7.822-52.334-10.254-76.343-6.748-69.058
		c1.353,2.969,6.475,15.918,11.602,28.594c55.84,141.084,212.568,254.917,476.655,346.094
		c144.59,50.176,281.895,84.165,629.341,156.729c315.073,65.552,415.693,91.177,517.119,131.372
		c84.976,33.721,143.511,72.563,168.057,111.948c8.633,13.755,18.076,41.001,18.076,52.334c0,32.637-74.995,107.9-160.508,161.04
		c-163.198,100.889-369.292,180.737-559.199,216.074C1844.692,11373.559,1743.535,11380.302,1670.43,11373.285z"/>
	<path fill="#29ABE2" d="M3789.355,11122.143c-159.961-102.505-315.342-212.026-461.279-325.591
		c-105.474-82.007-182.891-147.554-180.732-153.223c2.695-7.822,221.196-281.084,224.702-281.084
		c1.89-0.269,18.076,7.285,36.416,16.187c136.499,68.789,269.219,104.937,383.594,104.937c84.702,0,149.443-15.107,221.469-51.255
		c89.561-45.049,160.771-112.217,232.803-219.854c16.455-24.814,24.546-35.063,23.462-29.673c-0.811,4.59-3.506,20.771-5.664,36.421
		c-18.613,127.593-58.262,268.672-111.948,399.233c-19.155,46.938-73.369,155.923-99.81,200.972
		c-38.306,65.278-84.429,133.794-129.214,191.523c-40.996,52.871-104.389,125.435-109.253,125.435
		C3812.29,11135.902,3801.23,11129.696,3789.355,11122.143z"/>
	<path fill="#29ABE2" d="M2761.592,10898.52c-3.779-5.933-57.998-47.476-86.323-65.82
		c-107.632-70.405-244.937-125.435-434.302-173.989c-84.976-21.851-157.808-37.769-352.3-76.885
		c-282.168-56.919-388.452-82.271-510.918-121.929c-262.202-84.976-429.99-202.856-525.215-369.023
		c-16.45-28.594-16.992-30.21-18.882-53.95c-2.695-38.037-2.432-117.08,0.542-171.572
		c16.45-293.496,101.963-567.559,255.454-816.543c49.365-80.117,144.59-207.441,152.417-203.936
		c1.885,0.811,27.241,30.752,56.104,66.631c495.811,614.238,1035.049,1167.773,1635.527,1679.766
		c41.001,34.795,74.453,64.741,74.722,66.089c0,1.89-241.973,243.589-244.668,244.131
		C2763.481,10901.488,2762.397,10900.141,2761.592,10898.52z"/>
	<path fill="#29ABE2" d="M3073.159,10574.545c-312.109-233.882-563.252-453.999-872.661-765.835
		c-230.903-232.793-430.796-451.035-692.187-756.396c-62.852-73.643-93.877-110.332-197.192-233.34
		c-12.949-15.371-23.735-28.867-23.735-29.932c0-3.789,93.062-95.498,126.245-124.365
		c105.474-92.529,206.357-162.93,322.896-226.055c93.872-50.986,195.034-94.414,285.937-123.271
		c16.455-5.127,35.068-11.064,41.816-13.496c55.566-18.34,172.1-43.428,253.564-54.492c71.489-9.707,66.631-9.707,89.292,0.547
		c91.714,41.807,177.5,124.893,241.968,234.141c14.028,23.74,41.006,76.074,53.145,103.594
		c28.589,63.926,66.899,174.258,86.323,248.164c2.158,7.559,7.012,25.635,10.786,40.469
		c12.139,44.502,39.385,160.781,47.207,200.977c1.348,6.738,8.633,41.797,16.187,78.223c7.554,36.416,22.119,108.711,32.642,160.508
		c60.156,300.508,93.335,431.055,147.285,579.961c67.168,184.79,158.887,325.332,263.281,403.291
		c6.743,5.127,12.139,10.249,11.87,11.333c-1.621,4.854-224.707,277.305-227.134,277.036
		C3089.341,10585.604,3081.25,10580.478,3073.159,10574.545z"/>
	<path fill="#29ABE2" d="M3685.503,10422.128c-5.127-0.537-22.388-3.501-38.306-6.201c-76.338-14.297-136.494-45.854-174.531-91.719
		c-16.455-19.688-17.534-28.589-6.743-56.108c11.865-29.941,22.119-47.202,100.62-170.483
		c58.262-91.177,94.951-151.602,128.403-210.41c188.823-332.598,257.885-632.031,210.136-911.777
		c-6.743-39.111-21.577-101.689-29.136-123.271c-2.153-6.475-3.232-11.602-2.153-11.328c2.427,0,48.286,57.725,73.911,92.793
		c180.195,246.299,289.443,522.51,324.512,820.059c10.791,93.604,14.844,207.979,9.712,288.364l-3.228,50.986l-11.064,21.851
		c-83.086,165.63-254.111,280.273-455.346,305.361C3784.77,10423.754,3710.591,10424.828,3685.503,10422.128z"/>
	<path fill="#29ABE2" d="M3328.076,10211.181c-97.651-35.332-174.8-151.602-237.383-357.695
		c-33.452-110.596-58.267-215.264-111.948-474.756c-65.552-316.709-92.256-430.537-132.446-565.146
		c-57.729-193.955-125.981-343.398-203.94-447.256c-27.515-36.689-71.211-83.086-101.968-107.9l-21.577-17.539l82.275,1.621
		c257.344,4.854,501.475,66.094,735.078,183.975c158.618,80.117,295.654,178.037,428.105,305.908
		c24.009,22.92,27.783,28.047,40.19,53.682c39.658,81.191,57.461,171.289,57.461,290.518c0,106.826-12.412,202.588-41.811,321.006
		c-74.185,297.813-245.752,636.895-395.732,781.216c-29.131,28.325-29.946,28.862-48.555,33.184
		C3351.816,10217.387,3344.804,10217.387,3328.076,10211.181z"/>
</g>
<text transform="matrix(1 0 0 1 545 247.0001)" font-family="'ZiYuLianHuaTi'" font-size="128">iKun网</text>
<text transform="matrix(1 0 0 1 461 331.0001)" font-family="'ZiYuLianHuaTi'" font-size="48">对小黑子公开的网站</text>
</svg>
